<svg width="142" height="142" viewBox="0 0 142 142" fill="none" xmlns="http://www.w3.org/2000/svg">
<path fill-rule="evenodd" clip-rule="evenodd" d="M99.6592 137.553C124.411 128.007 141.972 103.991 141.972 75.8732C141.972 39.3758 112.385 9.78873 75.8876 9.78873C39.3901 9.78873 9.8031 39.3758 9.8031 75.8732C9.8031 103.991 27.3639 128.008 52.1164 137.553L68.5341 94.9543C60.8766 92.0014 55.444 84.5717 55.444 75.8732C55.444 64.5826 64.5968 55.4298 75.8874 55.4298C87.178 55.4298 96.3308 64.5826 96.3308 75.8732C96.3308 84.5714 90.8985 92.0008 83.2415 94.954L99.6592 137.553ZM77.5933 141.936C77.0266 141.951 76.4581 141.958 75.8879 141.958C69.6649 141.958 62.983 140.909 57.4245 139.344C63.284 141.046 69.4793 141.958 75.8876 141.958C76.4579 141.958 77.0265 141.951 77.5933 141.936Z" fill="#D8EAFD"/>
<mask id="path-2-outside-1_4828_5204" maskUnits="userSpaceOnUse" x="0.972046" y="0" width="131" height="127" fill="black">
<rect fill="white" x="0.972046" width="131" height="127"/>
<path fill-rule="evenodd" clip-rule="evenodd" d="M87.8998 121.491C110.468 112.788 126.479 90.8904 126.479 65.2536C126.479 31.9764 99.5027 5 66.2256 5C32.9485 5 5.97205 31.9764 5.97205 65.2536C5.97205 90.8906 21.9834 112.788 44.552 121.492L59.5211 82.651C52.5393 79.9587 47.5859 73.1846 47.5859 65.2535C47.5859 54.9592 55.9312 46.614 66.2255 46.614C76.5199 46.614 84.8651 54.9592 84.8651 65.2535C84.8651 73.1843 79.9122 79.9581 72.9308 82.6507L87.8998 121.491Z"/>
</mask>
<path d="M87.8998 121.491L83.2343 123.289C83.7113 124.527 84.6604 125.524 85.8728 126.062C87.0852 126.6 88.4615 126.634 89.699 126.156L87.8998 121.491ZM44.552 121.492L42.7529 126.157C43.9903 126.634 45.3667 126.6 46.5791 126.062C47.7914 125.524 48.7405 124.527 49.2175 123.29L44.552 121.492ZM59.5211 82.651L64.1866 84.4491C65.1795 81.8728 63.8962 78.9793 61.3201 77.9859L59.5211 82.651ZM72.9308 82.6507L71.1316 77.9856C68.5556 78.9791 67.2724 81.8725 68.2653 84.4488L72.9308 82.6507ZM121.479 65.2536C121.479 88.7551 106.804 108.842 86.1007 116.826L89.699 126.156C114.132 116.734 131.479 93.0257 131.479 65.2536H121.479ZM66.2256 10C96.7413 10 121.479 34.7379 121.479 65.2536H131.479C131.479 29.215 102.264 0 66.2256 0V10ZM10.972 65.2536C10.972 34.7379 35.7099 10 66.2256 10V0C30.1871 0 0.972046 29.215 0.972046 65.2536H10.972ZM46.351 116.826C25.647 108.842 10.972 88.7553 10.972 65.2536H0.972046C0.972046 93.0259 18.3199 116.734 42.7529 126.157L46.351 116.826ZM54.8556 80.8529L39.8865 119.693L49.2175 123.29L64.1866 84.4491L54.8556 80.8529ZM42.5859 65.2535C42.5859 75.3199 48.8758 83.9048 57.7221 87.3162L61.3201 77.9859C56.2027 76.0125 52.5859 71.0492 52.5859 65.2535H42.5859ZM66.2255 41.614C53.1697 41.614 42.5859 52.1978 42.5859 65.2535H52.5859C52.5859 57.7206 58.6926 51.614 66.2255 51.614V41.614ZM89.8651 65.2535C89.8651 52.1978 79.2813 41.614 66.2255 41.614V51.614C73.7585 51.614 79.8651 57.7206 79.8651 65.2535H89.8651ZM74.73 87.3158C83.5757 83.9042 89.8651 75.3195 89.8651 65.2535H79.8651C79.8651 71.049 76.2486 76.0121 71.1316 77.9856L74.73 87.3158ZM92.5653 119.693L77.5963 80.8526L68.2653 84.4488L83.2343 123.289L92.5653 119.693Z" fill="#5595D9" mask="url(#path-2-outside-1_4828_5204)"/>
</svg>
