<svg width="142" height="149" viewBox="0 0 142 149" fill="none" xmlns="http://www.w3.org/2000/svg">
<path d="M38.7747 31.73C37.4111 26.6409 40.4286 21.4144 45.5178 20.0508C50.6069 18.6871 55.8334 21.7046 57.197 26.7938L66.3414 60.9211C67.8298 58.6465 70.1251 56.8962 72.9576 56.1372C77.7013 54.8661 82.5563 56.7738 85.2452 60.5453C86.6978 57.8607 89.1893 55.7369 92.3671 54.8854C98.1932 53.3243 104.163 56.5375 106.131 62.1312C107.613 59.8336 109.931 58.0771 112.764 57.3181C118.866 55.683 125.144 59.3074 126.779 65.4097L129.741 76.4631L130.728 80.1476L133.69 91.201C138.052 107.482 128.393 124.212 112.112 128.575L108.428 129.562L93.6898 133.511L93.6667 133.517L92.4693 133.838C91.3179 134.146 90.171 134.38 89.0225 134.515C75.9425 136.637 62.469 133.238 51.9089 124.961L29.4054 107.297C25.2505 104.042 24.5369 98.0625 27.7922 93.9077C31.0475 89.7528 37.0266 89.0392 41.1815 92.2945L58.6863 106.041L38.7747 31.73ZM80.8555 85.6129C80.3126 83.5864 78.2103 82.3727 76.1838 82.9157C74.1574 83.4587 72.9436 85.5609 73.4866 87.5874L79.4101 109.694C79.9531 111.721 82.0554 112.934 84.0818 112.391C86.1083 111.848 87.322 109.746 86.779 107.72L80.8555 85.6129ZM90.9217 78.9667C88.8952 79.5097 87.6815 81.6119 88.2245 83.6384L94.1479 105.745C94.6909 107.772 96.7932 108.985 98.8197 108.442C100.846 107.899 102.06 105.797 101.517 103.771L95.5934 81.6639C95.0504 79.6374 92.9481 78.4237 90.9217 78.9667ZM110.331 77.7149C109.788 75.6884 107.686 74.4747 105.66 75.0177C103.633 75.5607 102.419 77.6629 102.962 79.6894L108.886 101.796C109.429 103.823 111.531 105.036 113.557 104.493C115.584 103.95 116.798 101.848 116.255 99.8217L110.331 77.7149Z" fill="#D8EAFD"/>
<path d="M31.7059 85.4046L46.4999 96.5L29.0881 31.5586C28.3747 28.898 28.2128 26.021 29.3874 23.5294C32.6172 16.6784 37.934 17.7799 41.9003 20.4086C44.1151 21.8764 45.3712 24.3408 46.0803 26.9015L53.9999 55.5C61.1999 47.1 68.6666 52 71.4999 55.5C79.0999 45.5 87.3332 52.3333 90.4999 57C100.1 48.2 106.833 55 109 59.5L115.157 83.2471C115.717 85.4098 116.102 87.6289 115.999 89.8607C115.267 105.69 104.271 114.16 98.4999 116.5L74.4999 123C60.4999 126.2 47.9999 120 43.4999 116.5L21.9304 98.813C19.6857 96.9724 17.7651 94.5784 17.4523 91.6925C16.8234 85.889 20.3337 83.3853 24.5043 82.9013C27.1179 82.5981 29.6011 83.8259 31.7059 85.4046Z" stroke="#5595D9" stroke-width="5" stroke-linecap="round" stroke-linejoin="round"/>
<path d="M2.82422 30.274C6.32423 15.1073 22.4243 -9.92603 58.8242 11.274" stroke="#5595D9" stroke-width="5" stroke-linecap="round"/>
</svg>
