<svg width="130" height="134" viewBox="0 0 130 134" fill="none" xmlns="http://www.w3.org/2000/svg">
<path d="M114.343 43.4002C123.315 41.2766 130 33.1658 130 23.4688C130 12.1598 120.901 3 109.667 3C98.6358 3 89.6637 11.8271 89.3333 22.8291L42.6175 41.6604C38.9321 38.0016 33.8996 35.75 28.3333 35.75C17.0992 35.75 8 44.9098 8 56.2188C8 67.5277 17.0992 76.6875 28.3333 76.6875C31.4342 76.6875 34.3825 75.9967 37.0004 74.743L74.0071 107.339C73.3971 109.284 73.0667 111.382 73.0667 113.531C73.0667 124.84 82.1658 134 93.4 134C104.634 134 113.733 124.84 113.733 113.531C113.733 106.444 110.175 100.201 104.736 96.5422L114.343 43.4002ZM47.7263 62.4105C48.2854 60.6451 48.6158 58.7773 48.6667 56.8584L95.3825 38.0527C96.2975 38.9482 97.2633 39.767 98.3308 40.4834L88.7233 93.5998C87.3254 93.9324 85.9783 94.393 84.7075 95.007L47.7263 62.4105Z" fill="#D8EAFD"/>
<path d="M97.924 34.8831L96.3305 35.2592L96.0384 36.8703L87.1397 85.9556L86.8477 87.566L88.2069 88.4777C92.5738 91.4071 95.4333 96.4059 95.4333 102.094C95.4333 111.168 88.1156 118.5 79.1 118.5C70.0844 118.5 62.7667 111.168 62.7667 102.094C62.7667 100.364 63.0337 98.6786 63.5225 97.1248L64.0112 95.5712L62.7876 94.4963L28.5109 64.3881L27.2719 63.2998L25.7837 64.0105C23.6961 65.0074 21.3335 65.5625 18.8333 65.5625C9.81773 65.5625 2.5 58.2304 2.5 49.1562C2.5 40.0821 9.81773 32.75 18.8333 32.75C23.2996 32.75 27.3372 34.5477 30.3049 37.4858L31.4721 38.6414L32.9962 38.0288L76.2658 20.635L77.783 20.0251L77.8322 18.3907C78.0979 9.5679 85.3124 2.5 94.1667 2.5C103.182 2.5 110.5 9.83214 110.5 18.9062C110.5 26.6842 105.125 33.1834 97.924 34.8831ZM34.4129 54.1186L33.9186 55.675L35.1451 56.7531L69.3982 86.8613L70.6421 87.9546L72.134 87.2358C73.129 86.7563 74.2035 86.3872 75.3455 86.1162L76.9364 85.7388L77.2282 84.13L86.1269 35.0682L86.4194 33.4558L85.0575 32.5444C84.2222 31.9854 83.4456 31.3327 82.6824 30.5878L81.5166 29.45L80.0049 30.0569L36.7353 47.427L35.2112 48.0389L35.1675 49.6807C35.127 51.2086 34.863 52.7016 34.4129 54.1186Z" stroke="#5595D9" stroke-width="5"/>
</svg>
